<svg xmlns="http://www.w3.org/2000/svg" id="Layer_3" data-name="Layer 3" viewBox="0 0 576.2 576.4" width="576.2000122070312px" height="576.4000244140625px" transform="rotate(0) scale(1, 1)"><defs><style>.cls-1 { fill: #eaeaea; }</style></defs><path class="cls-1" d="M549.7,644.7v16c0,18.8,0,37.5-.1,56.3,0,6.8-4.2,10.9-10.4,10.2s-7.9-4.6-7.9-10.6V644.7H447.4c-4.8,0-8.9-1-10.9-5.9s.4-8.4,3.7-11.7l83.7-83.6A25.7,25.7,0,0,1,528,541a14.8,14.8,0,0,0,.1-2.1c-1.5-1-3.2-1.7-4.4-2.9-28-27.9-55.9-55.7-83.6-83.7a14.3,14.3,0,0,1-4-8.8c-.3-5,4.1-8,10.1-8h85.1v-72c0-6.7,3.2-10.3,8.9-10.5s9.4,3.4,9.4,9.7c.1,18.7.1,37.3.1,55.9v16.9h83.9c2.3,0,4.9.1,6.8,1.1,6.2,3.1,6.6,10,1.1,15.5q-22.7,22.8-45.5,45.4c-12.8,12.9-25.7,25.7-38.5,38.5-1.3,1.2-2.4,2.5-3.8,4l3.5,3.7,83.9,83.9c2.9,2.8,5.1,5.8,3.8,10.1s-4.5,7-10.4,7H549.7Zm.3-190.9v61.7l61.9-61.7Zm62.3,172.4L550,563.6v62.6ZM531,516.8V454H468.4ZM468,626h62.9V563.1C509.9,584.2,489.1,604.9,468,626Z" transform="translate(-251.9 -251.8)"/><path class="cls-1" d="M483.4,540.2c-13.4-13.4-26.2-26-38.9-38.8l-49.2-49.1c-3-3-5-6.2-3.5-10.6a8.9,8.9,0,0,1,13.6-4.8,22.8,22.8,0,0,1,3.3,2.9l91.8,91.7c6.4,6.4,6.4,10.5,0,16.9l-92.4,92.4c-2.9,2.8-5.9,4.8-10.2,3.4a8.6,8.6,0,0,1-6.5-7.1c-.7-3.9,1.2-6.7,3.9-9.4L472,551.1C475.6,547.5,479.2,544.1,483.4,540.2Z" transform="translate(-251.9 -251.8)"/><path class="cls-1" d="M596.1,540.9c1.5,1,3.2,1.6,4.3,2.7q42,42,84.1,83.9c2.6,2.7,4.5,5.5,3.9,9.4a8.9,8.9,0,0,1-14.2,6,21.8,21.8,0,0,1-3.5-3.3l-90.6-90.5c-7.3-7.2-7.3-11-.2-18.1q45.6-45.6,91.3-91.1a16.2,16.2,0,0,1,6.5-4.2c4.1-1.1,7.6.6,9.7,4.4s1.3,8.1-2.3,11.6l-47.6,47.6c-12.4,12.5-24.9,24.9-37.3,37.3Z" transform="translate(-251.9 -251.8)"/><path class="cls-1" d="M351.1,540c-1.1-22.7,20.1-40.3,40.5-40,18.7.2,40.3,16.7,39.5,41.3-.7,22-17.9,38.7-40.7,38.9S350,561.5,351.1,540Z" transform="translate(-251.9 -251.8)"/><path class="cls-1" d="M689.2,500.3c18.8-1.4,40.1,16.1,40,40.1-.2,20.7-17.5,40-40.4,39.9s-40.2-19.4-40-40.7S668.2,499,689.2,500.3Z" transform="translate(-251.9 -251.8)"/><path class="cls-1" d="M405.9,307.4c-.9-1.6-1.6-2.7-2.3-3.8l-7.1-12.7c29.4-21.6,112.6-43.6,144.8-38.3v18.8C493,271.7,448,283.4,405.9,307.4Z" transform="translate(-251.9 -251.8)"/><path class="cls-1" d="M473.7,800.6c-1.6,6.4-3.2,12.5-4.8,18.7a289,289,0,0,1-104.4-50.7l11.8-15.3A272.4,272.4,0,0,0,473.7,800.6Z" transform="translate(-251.9 -251.8)"/><path class="cls-1" d="M559.6,272.1c.5-6.3,1-12.5,1.5-19.1a287.2,287.2,0,0,1,111.2,31.4,9.4,9.4,0,0,1-.6,2.3l-7.8,14.9C623.4,281.2,589.6,274.9,559.6,272.1Z" transform="translate(-251.9 -251.8)"/><path class="cls-1" d="M617.6,797.4A270.9,270.9,0,0,0,712.7,746c4.2,4.8,8.3,9.6,12.6,14.7A288.4,288.4,0,0,1,623.1,816C621.3,809.7,619.5,803.7,617.6,797.4Z" transform="translate(-251.9 -251.8)"/><path class="cls-1" d="M679.8,310.8l10-16.5a286.1,286.1,0,0,1,85,79L759,384.5A270.4,270.4,0,0,0,679.8,310.8Z" transform="translate(-251.9 -251.8)"/><path class="cls-1" d="M769.1,399.9l14-8.6a28.3,28.3,0,0,1,2.6-1.4,286.4,286.4,0,0,1,39.3,109l-19,2.7C800.3,465.3,788.4,431.6,769.1,399.9Z" transform="translate(-251.9 -251.8)"/><path class="cls-1" d="M740.7,746.8c-5-4.4-9.7-8.4-14.6-12.8a271.6,271.6,0,0,0,61.5-89.6l17.9,7.5A288.1,288.1,0,0,1,740.7,746.8Z" transform="translate(-251.9 -251.8)"/><path class="cls-1" d="M379.6,301l10.8,16a270.9,270.9,0,0,0-75.9,77.2c-3.2-2-6.1-3.8-8.9-5.7l-7.3-4.8A285.9,285.9,0,0,1,379.6,301Z" transform="translate(-251.9 -251.8)"/><path class="cls-1" d="M362.2,741.6l-12.8,14.5c-29.6-26.1-52.5-56.8-69.7-92.7l17.4-8.4A271.1,271.1,0,0,0,362.2,741.6Z" transform="translate(-251.9 -251.8)"/><path class="cls-1" d="M272.7,513.1l-19.2-1.7a286.4,286.4,0,0,1,34.6-110.8l16.9,9.3A272.5,272.5,0,0,0,272.7,513.1Z" transform="translate(-251.9 -251.8)"/><path class="cls-1" d="M271.9,645.3c-14.5-36.9-20.5-74.6-20-113.9h19.4c-.7,36.8,5.1,72.3,18.6,106.9Z" transform="translate(-251.9 -251.8)"/><path class="cls-1" d="M826.8,518.5c4.5,33.8-3.2,86.8-14.7,114.9l-17.9-6.1a273.3,273.3,0,0,0,13.7-107.4Z" transform="translate(-251.9 -251.8)"/><path class="cls-1" d="M488.2,823.4l3.4-19a268.8,268.8,0,0,0,108.3-2.3c1.5,6.6,2.8,12.5,4.2,18.9C565.6,829.5,527.3,830.8,488.2,823.4Z" transform="translate(-251.9 -251.8)"/></svg>