<?xml version="1.0" standalone="no"?>
<!DOCTYPE svg PUBLIC "-//W3C//DTD SVG 1.1//EN" "http://www.w3.org/Graphics/SVG/1.1/DTD/svg11.dtd">
<svg xmlns="http://www.w3.org/2000/svg" id="Layer_1" data-name="Layer 1" viewBox="0 0 151.3 151.2" width="151.3000030517578" height="151.1999969482422"><defs><style>.cls-1{fill:#030303;}</style></defs><path class="cls-1" d="M652.6,104.6a75.6,75.6,0,1,0,75.8,75.7A75.4,75.4,0,0,0,652.6,104.6ZM632.8,213.1c-11.9.8-11.9.9-11.9-11,0-10.4.1-20.9-.1-31.4-.1-3.5.7-4.9,4.6-4.9,10.4.2,10.4,0,10.4,10.6v12.9h0c0,6.8-.1,13.7,0,20.5C635.8,212,635.2,212.9,632.8,213.1Zm-4.3-53.4a8.5,8.5,0,0,1-8.7-8.4,8.6,8.6,0,1,1,8.7,8.4Zm52.2,53.4c-4.2.1-5.4-1.2-5.2-5.3.4-6.8.2-13.6.1-20.5s-2.5-9.3-7.2-9.5-8.5,3.2-8.8,9.4-.2,14.6,0,21.9c0,3.1-.9,3.9-4,4-10.8.1-10.8.3-10.8-10.6s.1-21.6,0-32.4c-.1-3.1.8-4.7,4.2-4.2a16.2,16.2,0,0,0,4.4,0c3.6-.4,6.3.1,5.9,4.8,2.2-1.5,3.9-2.9,5.7-3.9,11.5-6,23.7.4,25,13.3.8,7.7.4,15.6.4,23.4C690.5,213.1,690.4,212.8,680.7,213.1Z" transform="translate(-577.1 -104.6)"/></svg>