<?xml version="1.0" standalone="no"?>
<!DOCTYPE svg PUBLIC "-//W3C//DTD SVG 1.1//EN" "http://www.w3.org/Graphics/SVG/1.1/DTD/svg11.dtd">
<svg xmlns="http://www.w3.org/2000/svg" id="Layer_1" data-name="Layer 1" viewBox="0 0 145.5 145.5" width="145.5" height="145.5"><path d="M362.6,820.5A72.6,72.6,0,0,1,435.4,748c40.6,0,72.8,32.5,72.7,73.4s-32.9,72.1-73.8,72.1S362.6,860.5,362.6,820.5Zm72.8,37.4h44.4c4.4,0,5.4-1,5.4-5.4.1-19.7.1-39.4.1-59.1,0-4-1.2-5.2-5.2-5.2H390.6c-3.9,0-5.1,1.2-5.1,5.1v59.5c0,3.9,1.2,5.1,5,5.1Z" transform="translate(-362.6 -748)"/><path d="M400,795.6h71.5l-35.7,32.3Z" transform="translate(-362.6 -748)"/><path d="M400.7,850.4,426,829l6.8,6.1c2.4,2.1,3.7,2,6-.1l7-6.2,25.4,21.6Z" transform="translate(-362.6 -748)"/><path d="M420.5,824l-27.3,23.2V799.4Z" transform="translate(-362.6 -748)"/><path d="M451.3,823.8,477.6,800v46.2Z" transform="translate(-362.6 -748)"/></svg>