<svg xmlns="http://www.w3.org/2000/svg" id="Layer_2" data-name="Layer 2" viewBox="0 0 1644.6 1226.2" width="1644.5999755859375px" height="1226.199951171875px" transform="rotate(0) scale(1, 1)"><defs><style>.cls-1 { fill: #d59844; }</style></defs><path class="cls-1" d="M-199.8,38.9a6.9,6.9,0,0,0,6.3,3.8H-42.3a6.9,6.9,0,0,0,6.2-3.8,6.9,6.9,0,0,0-.6-7.3L-112.3-70.3a6.9,6.9,0,0,0-5.6-2.8,6.9,6.9,0,0,0-5.6,2.8L-199.1,31.6A6.9,6.9,0,0,0-199.8,38.9Zm81.9-93.3,61.7,83.1H-179.6Z" transform="translate(282.3 73.1)"/><path class="cls-1" d="M76.5,39.9a7,7,0,0,0,11.2,0L163.3-61.9a7.1,7.1,0,0,0,.6-7.4,7.1,7.1,0,0,0-6.2-3.8H6.5A7.1,7.1,0,0,0,.2-69.3a7.1,7.1,0,0,0,.7,7.4Zm67.3-99L82.1,24,20.4-59.1Z" transform="translate(282.3 73.1)"/><path class="cls-1" d="M-6.4,39.9A6.9,6.9,0,0,0-.8,42.7a7.2,7.2,0,0,0,4.2-1.3,7,7,0,0,0,1.4-9.8L-70.8-70.3a6.9,6.9,0,0,0-9.7-1.4A6.9,6.9,0,0,0-82-61.9Z" transform="translate(282.3 73.1)"/><path class="cls-1" d="M31.4,39.9A6.9,6.9,0,0,0,37,42.7a7.2,7.2,0,0,0,4.2-1.3,7,7,0,0,0,1.4-9.8L-33-70.3a6.9,6.9,0,0,0-9.7-1.4,6.9,6.9,0,0,0-1.5,9.8Z" transform="translate(282.3 73.1)"/><path class="cls-1" d="M-241.7,41.4a7.2,7.2,0,0,0,4.2,1.3,6.9,6.9,0,0,0,5.6-2.8l75.6-101.8a7,7,0,0,0-1.4-9.8,7,7,0,0,0-9.8,1.4L-243.1,31.6A7,7,0,0,0-241.7,41.4Z" transform="translate(282.3 73.1)"/><path class="cls-1" d="M-279.5,41.4a7.2,7.2,0,0,0,4.2,1.3,6.9,6.9,0,0,0,5.6-2.8l75.6-101.8a7,7,0,0,0-1.4-9.8,7,7,0,0,0-9.8,1.4L-280.9,31.6A7,7,0,0,0-279.5,41.4Z" transform="translate(282.3 73.1)"/><path class="cls-1" d="M200.1,38.9a6.9,6.9,0,0,0,6.3,3.8H357.6a7,7,0,0,0,5.6-11.1L287.6-70.3a6.9,6.9,0,0,0-5.6-2.8,7.1,7.1,0,0,0-5.7,2.8L200.7,31.6A7.1,7.1,0,0,0,200.1,38.9ZM282-54.4l61.6,83.1H220.3Z" transform="translate(282.3 73.1)"/><path class="cls-1" d="M476.3,39.9a7.1,7.1,0,0,0,5.7,2.8,6.9,6.9,0,0,0,5.6-2.8L563.2-61.9a7.1,7.1,0,0,0,.6-7.4,7.1,7.1,0,0,0-6.2-3.8H406.4a7.1,7.1,0,0,0-6.3,3.8,7.3,7.3,0,0,0,.6,7.4Zm67.3-99L482,24,420.3-59.1Z" transform="translate(282.3 73.1)"/><path class="cls-1" d="M393.5,39.9a6.9,6.9,0,0,0,5.6,2.8,7.2,7.2,0,0,0,4.2-1.3,7,7,0,0,0,1.4-9.8L329.1-70.3a7,7,0,0,0-9.8-1.4,7,7,0,0,0-1.4,9.8Z" transform="translate(282.3 73.1)"/><path class="cls-1" d="M431.3,39.9a6.9,6.9,0,0,0,5.6,2.8,7.2,7.2,0,0,0,4.2-1.3,7,7,0,0,0,1.4-9.8L366.9-70.3a7,7,0,0,0-9.8-1.4,7,7,0,0,0-1.4,9.8Z" transform="translate(282.3 73.1)"/><path class="cls-1" d="M158.2,41.4a7,7,0,0,0,4.2,1.3,6.9,6.9,0,0,0,5.6-2.8L243.6-61.9a7,7,0,0,0-1.5-9.8,7,7,0,0,0-9.8,1.4L156.7,31.6A7,7,0,0,0,158.2,41.4Z" transform="translate(282.3 73.1)"/><path class="cls-1" d="M120.4,41.4a7,7,0,0,0,4.2,1.3,6.9,6.9,0,0,0,5.6-2.8L205.8-61.9a7,7,0,0,0-1.5-9.8,7,7,0,0,0-9.8,1.4L118.9,31.6A7,7,0,0,0,120.4,41.4Z" transform="translate(282.3 73.1)"/><path class="cls-1" d="M598,38.9a6.9,6.9,0,0,0,6.2,3.8H755.4a6.9,6.9,0,0,0,6.3-3.8,7.1,7.1,0,0,0-.6-7.3L685.5-70.3a7.1,7.1,0,0,0-5.7-2.8,6.9,6.9,0,0,0-5.6,2.8L598.6,31.6A6.9,6.9,0,0,0,598,38.9Zm81.8-93.3,61.7,83.1H618.2Z" transform="translate(282.3 73.1)"/><path class="cls-1" d="M874.2,39.9a6.9,6.9,0,0,0,5.6,2.8,7.1,7.1,0,0,0,5.7-2.8L961.1-61.9a7.3,7.3,0,0,0,.6-7.4,7.1,7.1,0,0,0-6.3-3.8H804.2a7.1,7.1,0,0,0-6.2,3.8,7.1,7.1,0,0,0,.6,7.4Zm67.3-99L879.8,24,818.2-59.1Z" transform="translate(282.3 73.1)"/><path class="cls-1" d="M791.4,39.9a6.6,6.6,0,0,0,5.6,2.8,7.4,7.4,0,0,0,4.2-1.3,7,7,0,0,0,1.4-9.8L727-70.3a7,7,0,0,0-9.8-1.4,7,7,0,0,0-1.4,9.8Z" transform="translate(282.3 73.1)"/><path class="cls-1" d="M829.2,39.9a6.6,6.6,0,0,0,5.6,2.8,7.4,7.4,0,0,0,4.2-1.3,7,7,0,0,0,1.4-9.8L764.8-70.3a7,7,0,0,0-9.8-1.4,7,7,0,0,0-1.4,9.8Z" transform="translate(282.3 73.1)"/><path class="cls-1" d="M556.1,41.4a7.2,7.2,0,0,0,9.8-1.5L641.5-61.9a7,7,0,0,0-1.5-9.8,7,7,0,0,0-9.8,1.4L554.6,31.6A7,7,0,0,0,556.1,41.4Z" transform="translate(282.3 73.1)"/><path class="cls-1" d="M518.3,41.4a7.2,7.2,0,0,0,9.8-1.5L603.7-61.9a7,7,0,0,0-1.5-9.8,7,7,0,0,0-9.8,1.4L516.8,31.6A7,7,0,0,0,518.3,41.4Z" transform="translate(282.3 73.1)"/><path class="cls-1" d="M997.9,38.9a6.9,6.9,0,0,0,6.2,3.8h151.2a6.9,6.9,0,0,0,5.6-11.1L1085.3-70.3a6.9,6.9,0,0,0-5.6-2.8,6.9,6.9,0,0,0-5.6,2.8L998.5,31.6A6.9,6.9,0,0,0,997.9,38.9Zm81.8-93.3,61.7,83.1H1018Z" transform="translate(282.3 73.1)"/><path class="cls-1" d="M1274.1,39.9a7,7,0,0,0,11.2,0l75.6-101.8a7.1,7.1,0,0,0,.7-7.4,7.1,7.1,0,0,0-6.3-3.8H1204.1a7.1,7.1,0,0,0-6.2,3.8,7.1,7.1,0,0,0,.6,7.4Zm67.3-99L1279.7,24,1218-59.1Z" transform="translate(282.3 73.1)"/><path class="cls-1" d="M1191.2,39.9a7.2,7.2,0,0,0,9.8,1.5,7,7,0,0,0,1.5-9.8L1126.9-70.3a7,7,0,0,0-9.8-1.4,7,7,0,0,0-1.5,9.8Z" transform="translate(282.3 73.1)"/><path class="cls-1" d="M1229,39.9a7.2,7.2,0,0,0,9.8,1.5,7,7,0,0,0,1.5-9.8L1164.7-70.3a7,7,0,0,0-9.8-1.4,7,7,0,0,0-1.5,9.8Z" transform="translate(282.3 73.1)"/><path class="cls-1" d="M955.9,41.4a7.4,7.4,0,0,0,4.2,1.3,6.6,6.6,0,0,0,5.6-2.8l75.6-101.8a7,7,0,0,0-1.4-9.8,7,7,0,0,0-9.8,1.4L954.5,31.6A7,7,0,0,0,955.9,41.4Z" transform="translate(282.3 73.1)"/><path class="cls-1" d="M918.1,41.4a7.4,7.4,0,0,0,4.2,1.3,6.6,6.6,0,0,0,5.6-2.8l75.6-101.8a7,7,0,0,0-1.4-9.8,7,7,0,0,0-9.8,1.4L916.7,31.6A7,7,0,0,0,918.1,41.4Z" transform="translate(282.3 73.1)"/><path class="cls-1" d="M-42.3,75.1H-193.5a7,7,0,0,0-6.3,3.9,6.9,6.9,0,0,0,.7,7.3l75.6,101.9a7.2,7.2,0,0,0,5.6,2.8,7.2,7.2,0,0,0,5.6-2.8L-36.7,86.3a6.9,6.9,0,0,0,.6-7.3A7,7,0,0,0-42.3,75.1Zm-75.6,97.1-61.7-83.1H-56.2Z" transform="translate(282.3 73.1)"/><path class="cls-1" d="M82.1,75.1A7,7,0,0,0,76.5,78L.9,179.8a6.9,6.9,0,0,0-.7,7.3A7,7,0,0,0,6.5,191H157.7a7.1,7.1,0,0,0,5.6-11.2L87.7,78A7,7,0,0,0,82.1,75.1ZM20.4,177,82.1,93.9,143.8,177Z" transform="translate(282.3 73.1)"/><path class="cls-1" d="M3.4,76.5A7,7,0,0,0-6.4,78L-82,179.8a6.9,6.9,0,0,0,1.5,9.8,7,7,0,0,0,4.1,1.4,6.9,6.9,0,0,0,5.6-2.8L4.8,86.3A7,7,0,0,0,3.4,76.5Z" transform="translate(282.3 73.1)"/><path class="cls-1" d="M41.2,76.5A7,7,0,0,0,31.4,78L-44.2,179.8a6.9,6.9,0,0,0,1.5,9.8,7,7,0,0,0,4.1,1.4,6.9,6.9,0,0,0,5.6-2.8L42.6,86.3A7,7,0,0,0,41.2,76.5Z" transform="translate(282.3 73.1)"/><path class="cls-1" d="M-241.7,76.5a7,7,0,0,0-1.4,9.8l75.6,101.9a6.9,6.9,0,0,0,5.6,2.8,7.5,7.5,0,0,0,4.2-1.4,7,7,0,0,0,1.4-9.8L-231.9,78A7,7,0,0,0-241.7,76.5Z" transform="translate(282.3 73.1)"/><path class="cls-1" d="M-205.3,188.2a6.9,6.9,0,0,0,5.6,2.8,7.5,7.5,0,0,0,4.2-1.4,7,7,0,0,0,1.4-9.8L-269.7,78a7,7,0,0,0-9.8-1.5,7,7,0,0,0-1.4,9.8Z" transform="translate(282.3 73.1)"/><path class="cls-1" d="M357.6,75.1H206.4a7,7,0,0,0-6.3,3.9,7.1,7.1,0,0,0,.6,7.3l75.6,101.9A7.4,7.4,0,0,0,282,191a7.2,7.2,0,0,0,5.6-2.8L363.2,86.3a6.9,6.9,0,0,0,.6-7.3A7,7,0,0,0,357.6,75.1ZM282,172.2,220.3,89.1H343.6Z" transform="translate(282.3 73.1)"/><path class="cls-1" d="M482,75.1a7.2,7.2,0,0,0-5.7,2.9L400.7,179.8a7.1,7.1,0,0,0-.6,7.3,7,7,0,0,0,6.3,3.9H557.6a7.1,7.1,0,0,0,5.6-11.2L487.6,78A7,7,0,0,0,482,75.1ZM420.3,177,482,93.9,543.6,177Z" transform="translate(282.3 73.1)"/><path class="cls-1" d="M403.3,76.5a7,7,0,0,0-9.8,1.5L317.9,179.8a7,7,0,0,0,1.4,9.8,7.3,7.3,0,0,0,4.2,1.4,7,7,0,0,0,5.6-2.8L404.7,86.3A7,7,0,0,0,403.3,76.5Z" transform="translate(282.3 73.1)"/><path class="cls-1" d="M441.1,76.5a7,7,0,0,0-9.8,1.5L355.7,179.8a7,7,0,0,0,1.4,9.8,7.3,7.3,0,0,0,4.2,1.4,7,7,0,0,0,5.6-2.8L442.5,86.3A7,7,0,0,0,441.1,76.5Z" transform="translate(282.3 73.1)"/><path class="cls-1" d="M158.2,76.5a7,7,0,0,0-1.5,9.8l75.6,101.9A7.2,7.2,0,0,0,238,191a7.1,7.1,0,0,0,5.6-11.2L168,78A7,7,0,0,0,158.2,76.5Z" transform="translate(282.3 73.1)"/><path class="cls-1" d="M120.4,76.5a7,7,0,0,0-1.5,9.8l75.6,101.9a7.2,7.2,0,0,0,5.7,2.8,7.1,7.1,0,0,0,5.6-11.2L130.2,78A7,7,0,0,0,120.4,76.5Z" transform="translate(282.3 73.1)"/><path class="cls-1" d="M755.4,75.1H604.2A7,7,0,0,0,598,79a6.9,6.9,0,0,0,.6,7.3l75.6,101.9a7.2,7.2,0,0,0,5.6,2.8,7.4,7.4,0,0,0,5.7-2.8L761.1,86.3a7.1,7.1,0,0,0,.6-7.3A7,7,0,0,0,755.4,75.1Zm-75.6,97.1L618.2,89.1H741.5Z" transform="translate(282.3 73.1)"/><path class="cls-1" d="M879.8,75.1a7,7,0,0,0-5.6,2.9L798.6,179.8a7.1,7.1,0,0,0,5.6,11.2H955.4a7,7,0,0,0,6.3-3.9,7.1,7.1,0,0,0-.6-7.3L885.5,78A7.2,7.2,0,0,0,879.8,75.1ZM818.2,177l61.6-83.1L941.5,177Z" transform="translate(282.3 73.1)"/><path class="cls-1" d="M801.2,76.5a7,7,0,0,0-9.8,1.5L715.8,179.8a7,7,0,0,0,1.4,9.8,7.3,7.3,0,0,0,4.2,1.4,7.2,7.2,0,0,0,5.6-2.8L802.6,86.3A7,7,0,0,0,801.2,76.5Z" transform="translate(282.3 73.1)"/><path class="cls-1" d="M839,76.5a7,7,0,0,0-9.8,1.5L753.6,179.8a7,7,0,0,0,1.4,9.8,7.3,7.3,0,0,0,4.2,1.4,7.2,7.2,0,0,0,5.6-2.8L840.4,86.3A7,7,0,0,0,839,76.5Z" transform="translate(282.3 73.1)"/><path class="cls-1" d="M556.1,76.5a7,7,0,0,0-1.5,9.8l75.6,101.9a7.2,7.2,0,0,0,5.6,2.8,7.1,7.1,0,0,0,5.7-11.2L565.9,78A7,7,0,0,0,556.1,76.5Z" transform="translate(282.3 73.1)"/><path class="cls-1" d="M518.3,76.5a7,7,0,0,0-1.5,9.8l75.6,101.9A7.2,7.2,0,0,0,598,191a7.1,7.1,0,0,0,5.7-11.2L528.1,78A7,7,0,0,0,518.3,76.5Z" transform="translate(282.3 73.1)"/><path class="cls-1" d="M1155.3,75.1H1004.1a7,7,0,0,0-6.2,3.9,6.9,6.9,0,0,0,.6,7.3l75.6,101.9a7,7,0,0,0,11.2,0l75.6-101.9a6.9,6.9,0,0,0,.7-7.3A7,7,0,0,0,1155.3,75.1Zm-75.6,97.1L1018,89.1h123.4Z" transform="translate(282.3 73.1)"/><path class="cls-1" d="M1285.3,78a6.9,6.9,0,0,0-11.2,0l-75.6,101.8a7.1,7.1,0,0,0,5.6,11.2h151.2a7,7,0,0,0,6.3-3.9,6.9,6.9,0,0,0-.7-7.3ZM1218,177l61.7-83.1,61.7,83.1Z" transform="translate(282.3 73.1)"/><path class="cls-1" d="M1201,76.5a7,7,0,0,0-9.8,1.5l-75.6,101.8a7.1,7.1,0,0,0,5.7,11.2,7.2,7.2,0,0,0,5.6-2.8l75.6-101.9A7,7,0,0,0,1201,76.5Z" transform="translate(282.3 73.1)"/><path class="cls-1" d="M1238.8,76.5A7,7,0,0,0,1229,78l-75.6,101.8a7.1,7.1,0,0,0,5.7,11.2,7.2,7.2,0,0,0,5.6-2.8l75.6-101.9A7,7,0,0,0,1238.8,76.5Z" transform="translate(282.3 73.1)"/><path class="cls-1" d="M955.9,76.5a7,7,0,0,0-1.4,9.8l75.6,101.9a7.2,7.2,0,0,0,5.6,2.8,7.3,7.3,0,0,0,4.2-1.4,7,7,0,0,0,1.4-9.8L965.7,78A7,7,0,0,0,955.9,76.5Z" transform="translate(282.3 73.1)"/><path class="cls-1" d="M918.1,76.5a7,7,0,0,0-1.4,9.8l75.6,101.9a7.2,7.2,0,0,0,5.6,2.8,7.3,7.3,0,0,0,4.2-1.4,7,7,0,0,0,1.4-9.8L927.9,78A7,7,0,0,0,918.1,76.5Z" transform="translate(282.3 73.1)"/><path class="cls-1" d="M-117.9,247.6a6.9,6.9,0,0,0-5.6,2.8l-75.6,101.9a6.9,6.9,0,0,0-.7,7.3,7,7,0,0,0,6.3,3.9H-42.3a7,7,0,0,0,6.2-3.9,6.9,6.9,0,0,0-.6-7.3l-75.6-101.9A6.9,6.9,0,0,0-117.9,247.6Zm-61.7,101.9,61.7-83.2,61.7,83.2Z" transform="translate(282.3 73.1)"/><path class="cls-1" d="M157.7,247.6H6.5a7,7,0,0,0-6.3,3.9,6.9,6.9,0,0,0,.7,7.3L76.5,360.6a6.9,6.9,0,0,0,11.2,0l75.6-101.8a7.1,7.1,0,0,0-5.6-11.2ZM82.1,344.7,20.4,261.6H143.8Z" transform="translate(282.3 73.1)"/><path class="cls-1" d="M-80.5,249a6.9,6.9,0,0,0-1.5,9.8L-6.4,360.6a7,7,0,0,0,5.6,2.9,7.3,7.3,0,0,0,4.2-1.4,7,7,0,0,0,1.4-9.8L-70.8,250.4A6.9,6.9,0,0,0-80.5,249Z" transform="translate(282.3 73.1)"/><path class="cls-1" d="M-42.7,249a6.9,6.9,0,0,0-1.5,9.8L31.4,360.6a7,7,0,0,0,5.6,2.9,7.3,7.3,0,0,0,4.2-1.4,7,7,0,0,0,1.4-9.8L-33,250.4A6.9,6.9,0,0,0-42.7,249Z" transform="translate(282.3 73.1)"/><path class="cls-1" d="M-241.7,362.1a7.3,7.3,0,0,0,4.2,1.4,7,7,0,0,0,5.6-2.9l75.6-101.8a7,7,0,0,0-1.4-9.8,7,7,0,0,0-9.8,1.4l-75.6,101.9A7,7,0,0,0-241.7,362.1Z" transform="translate(282.3 73.1)"/><path class="cls-1" d="M-279.5,362.1a7.3,7.3,0,0,0,4.2,1.4,7,7,0,0,0,5.6-2.9l75.6-101.8a7,7,0,0,0-1.4-9.8,7,7,0,0,0-9.8,1.4l-75.6,101.9A7,7,0,0,0-279.5,362.1Z" transform="translate(282.3 73.1)"/><path class="cls-1" d="M282,247.6a7.1,7.1,0,0,0-5.7,2.8L200.7,352.3a7.1,7.1,0,0,0-.6,7.3,7,7,0,0,0,6.3,3.9H357.6a7,7,0,0,0,6.2-3.9,6.9,6.9,0,0,0-.6-7.3L287.6,250.4A6.9,6.9,0,0,0,282,247.6ZM220.3,349.5,282,266.3l61.6,83.2Z" transform="translate(282.3 73.1)"/><path class="cls-1" d="M557.6,247.6H406.4a7,7,0,0,0-6.3,3.9,7.1,7.1,0,0,0,.6,7.3l75.6,101.8a7.2,7.2,0,0,0,5.7,2.9,7,7,0,0,0,5.6-2.9l75.6-101.8a7.1,7.1,0,0,0-5.6-11.2ZM482,344.7l-61.7-83.1H543.6Z" transform="translate(282.3 73.1)"/><path class="cls-1" d="M319.3,249a7,7,0,0,0-1.4,9.8l75.6,101.8a7,7,0,0,0,5.6,2.9,7.3,7.3,0,0,0,4.2-1.4,7,7,0,0,0,1.4-9.8L329.1,250.4A7,7,0,0,0,319.3,249Z" transform="translate(282.3 73.1)"/><path class="cls-1" d="M357.1,249a7,7,0,0,0-1.4,9.8l75.6,101.8a7,7,0,0,0,5.6,2.9,7.3,7.3,0,0,0,4.2-1.4,7,7,0,0,0,1.4-9.8L366.9,250.4A7,7,0,0,0,357.1,249Z" transform="translate(282.3 73.1)"/><path class="cls-1" d="M242.1,249a7,7,0,0,0-9.8,1.4L156.7,352.3a7,7,0,1,0,11.3,8.3l75.6-101.8A7,7,0,0,0,242.1,249Z" transform="translate(282.3 73.1)"/><path class="cls-1" d="M204.3,249a7,7,0,0,0-9.8,1.4L118.9,352.3a7,7,0,1,0,11.3,8.3l75.6-101.8A7,7,0,0,0,204.3,249Z" transform="translate(282.3 73.1)"/><path class="cls-1" d="M679.8,247.6a6.9,6.9,0,0,0-5.6,2.8L598.6,352.3a6.9,6.9,0,0,0-.6,7.3,7,7,0,0,0,6.2,3.9H755.4a7,7,0,0,0,6.3-3.9,7.1,7.1,0,0,0-.6-7.3L685.5,250.4A7.1,7.1,0,0,0,679.8,247.6ZM618.2,349.5l61.6-83.2,61.7,83.2Z" transform="translate(282.3 73.1)"/><path class="cls-1" d="M955.4,247.6H804.2a7.1,7.1,0,0,0-5.6,11.2l75.6,101.8a7,7,0,0,0,5.6,2.9,7.2,7.2,0,0,0,5.7-2.9l75.6-101.8a7.1,7.1,0,0,0,.6-7.3A7,7,0,0,0,955.4,247.6Zm-75.6,97.1-61.6-83.1H941.5Z" transform="translate(282.3 73.1)"/><path class="cls-1" d="M717.2,249a7,7,0,0,0-1.4,9.8l75.6,101.8a6.7,6.7,0,0,0,5.6,2.9,7.5,7.5,0,0,0,4.2-1.4,7,7,0,0,0,1.4-9.8L727,250.4A7,7,0,0,0,717.2,249Z" transform="translate(282.3 73.1)"/><path class="cls-1" d="M755,249a7,7,0,0,0-1.4,9.8l75.6,101.8a6.7,6.7,0,0,0,5.6,2.9,7.5,7.5,0,0,0,4.2-1.4,7,7,0,0,0,1.4-9.8L764.8,250.4A7,7,0,0,0,755,249Z" transform="translate(282.3 73.1)"/><path class="cls-1" d="M640,249a7,7,0,0,0-9.8,1.4L554.6,352.3a7,7,0,1,0,11.3,8.3l75.6-101.8A7,7,0,0,0,640,249Z" transform="translate(282.3 73.1)"/><path class="cls-1" d="M602.2,249a7,7,0,0,0-9.8,1.4L516.8,352.3a7,7,0,1,0,11.3,8.3l75.6-101.8A7,7,0,0,0,602.2,249Z" transform="translate(282.3 73.1)"/><path class="cls-1" d="M1160.9,352.3l-75.6-101.9a7,7,0,0,0-11.2,0L998.5,352.3a6.9,6.9,0,0,0-.6,7.3,7,7,0,0,0,6.2,3.9h151.2a7,7,0,0,0,6.3-3.9A6.9,6.9,0,0,0,1160.9,352.3ZM1018,349.5l61.7-83.2,61.7,83.2Z" transform="translate(282.3 73.1)"/><path class="cls-1" d="M1355.3,247.6H1204.1a7.1,7.1,0,0,0-5.6,11.2l75.6,101.8a6.9,6.9,0,0,0,11.2,0l75.6-101.8a7,7,0,0,0-5.6-11.2Zm-75.6,97.1L1218,261.6h123.4Z" transform="translate(282.3 73.1)"/><path class="cls-1" d="M1202.5,352.3l-75.6-101.9a7,7,0,0,0-11.3,8.4l75.6,101.8a7,7,0,0,0,11.3-8.3Z" transform="translate(282.3 73.1)"/><path class="cls-1" d="M1240.3,352.3l-75.6-101.9a7,7,0,0,0-11.3,8.4L1229,360.6a7,7,0,1,0,11.3-8.3Z" transform="translate(282.3 73.1)"/><path class="cls-1" d="M1039.9,249a7,7,0,0,0-9.8,1.4L954.5,352.3a7,7,0,0,0,1.4,9.8,7.5,7.5,0,0,0,4.2,1.4,6.7,6.7,0,0,0,5.6-2.9l75.6-101.8A7,7,0,0,0,1039.9,249Z" transform="translate(282.3 73.1)"/><path class="cls-1" d="M1002.1,249a7,7,0,0,0-9.8,1.4L916.7,352.3a7,7,0,0,0,1.4,9.8,7.5,7.5,0,0,0,4.2,1.4,6.7,6.7,0,0,0,5.6-2.9l75.6-101.8A7,7,0,0,0,1002.1,249Z" transform="translate(282.3 73.1)"/><path class="cls-1" d="M-199.1,407l75.6,101.9a7.2,7.2,0,0,0,5.6,2.8,7.2,7.2,0,0,0,5.6-2.8L-36.7,407a6.9,6.9,0,0,0,.6-7.3,7,7,0,0,0-6.2-3.9H-193.5a7,7,0,0,0-6.3,3.9A6.9,6.9,0,0,0-199.1,407Zm142.9,2.8L-117.9,493l-61.7-83.2Z" transform="translate(282.3 73.1)"/><path class="cls-1" d="M82.1,395.8a7,7,0,0,0-5.6,2.9L.9,500.5a6.9,6.9,0,0,0-.7,7.3,7,7,0,0,0,6.3,3.9H157.7a7.1,7.1,0,0,0,5.6-11.2L87.7,398.7A7,7,0,0,0,82.1,395.8ZM20.4,497.7l61.7-83.1,61.7,83.1Z" transform="translate(282.3 73.1)"/><path class="cls-1" d="M3.4,397.2a7,7,0,0,0-9.8,1.5L-82,500.5a6.9,6.9,0,0,0,1.5,9.8,7,7,0,0,0,4.1,1.4,6.9,6.9,0,0,0,5.6-2.8L4.8,407A7,7,0,0,0,3.4,397.2Z" transform="translate(282.3 73.1)"/><path class="cls-1" d="M41.2,397.2a7,7,0,0,0-9.8,1.5L-44.2,500.5a6.9,6.9,0,0,0,1.5,9.8,7,7,0,0,0,4.1,1.4,6.9,6.9,0,0,0,5.6-2.8L42.6,407A7,7,0,0,0,41.2,397.2Z" transform="translate(282.3 73.1)"/><path class="cls-1" d="M-243.1,407l75.6,101.9a6.9,6.9,0,0,0,5.6,2.8,7.5,7.5,0,0,0,4.2-1.4,7,7,0,0,0,1.4-9.8l-75.6-101.8a7,7,0,0,0-9.8-1.5A7,7,0,0,0-243.1,407Z" transform="translate(282.3 73.1)"/><path class="cls-1" d="M-205.3,508.9a6.9,6.9,0,0,0,5.6,2.8,7.5,7.5,0,0,0,4.2-1.4,7,7,0,0,0,1.4-9.8l-75.6-101.8a7,7,0,0,0-9.8-1.5,7,7,0,0,0-1.4,9.8Z" transform="translate(282.3 73.1)"/><path class="cls-1" d="M357.6,395.8H206.4a7,7,0,0,0-6.3,3.9,7.1,7.1,0,0,0,.6,7.3l75.6,101.9a7.4,7.4,0,0,0,5.7,2.8,7.2,7.2,0,0,0,5.6-2.8L363.2,407a6.9,6.9,0,0,0,.6-7.3A7,7,0,0,0,357.6,395.8ZM282,493l-61.7-83.2H343.6Z" transform="translate(282.3 73.1)"/><path class="cls-1" d="M482,395.8a7.2,7.2,0,0,0-5.7,2.9L400.7,500.5a7.1,7.1,0,0,0-.6,7.3,7,7,0,0,0,6.3,3.9H557.6a7.1,7.1,0,0,0,5.6-11.2L487.6,398.7A7,7,0,0,0,482,395.8ZM420.3,497.7,482,414.6l61.6,83.1Z" transform="translate(282.3 73.1)"/><path class="cls-1" d="M403.3,397.2a7,7,0,0,0-9.8,1.5L317.9,500.5a7,7,0,0,0,1.4,9.8,7.3,7.3,0,0,0,4.2,1.4,7,7,0,0,0,5.6-2.8L404.7,407A7,7,0,0,0,403.3,397.2Z" transform="translate(282.3 73.1)"/><path class="cls-1" d="M441.1,397.2a7,7,0,0,0-9.8,1.5L355.7,500.5a7,7,0,0,0,1.4,9.8,7.3,7.3,0,0,0,4.2,1.4,7,7,0,0,0,5.6-2.8L442.5,407A7,7,0,0,0,441.1,397.2Z" transform="translate(282.3 73.1)"/><path class="cls-1" d="M158.2,397.2a7,7,0,0,0-1.5,9.8l75.6,101.9a7.2,7.2,0,0,0,5.7,2.8,7.1,7.1,0,0,0,5.6-11.2L168,398.7A7,7,0,0,0,158.2,397.2Z" transform="translate(282.3 73.1)"/><path class="cls-1" d="M120.4,397.2a7,7,0,0,0-1.5,9.8l75.6,101.9a7.2,7.2,0,0,0,5.7,2.8,7.1,7.1,0,0,0,5.6-11.2L130.2,398.7A7,7,0,0,0,120.4,397.2Z" transform="translate(282.3 73.1)"/><path class="cls-1" d="M755.4,395.8H604.2a7,7,0,0,0-6.2,3.9,6.9,6.9,0,0,0,.6,7.3l75.6,101.9a7.2,7.2,0,0,0,5.6,2.8,7.4,7.4,0,0,0,5.7-2.8L761.1,407a7.1,7.1,0,0,0,.6-7.3A7,7,0,0,0,755.4,395.8ZM679.8,493l-61.6-83.2H741.5Z" transform="translate(282.3 73.1)"/><path class="cls-1" d="M879.8,395.8a7,7,0,0,0-5.6,2.9L798.6,500.5a7.1,7.1,0,0,0,5.6,11.2H955.4a7,7,0,0,0,6.3-3.9,7.1,7.1,0,0,0-.6-7.3L885.5,398.7A7.2,7.2,0,0,0,879.8,395.8ZM818.2,497.7l61.6-83.1,61.7,83.1Z" transform="translate(282.3 73.1)"/><path class="cls-1" d="M801.2,397.2a7,7,0,0,0-9.8,1.5L715.8,500.5a7,7,0,0,0,1.4,9.8,7.3,7.3,0,0,0,4.2,1.4,7.2,7.2,0,0,0,5.6-2.8L802.6,407A7,7,0,0,0,801.2,397.2Z" transform="translate(282.3 73.1)"/><path class="cls-1" d="M839,397.2a7,7,0,0,0-9.8,1.5L753.6,500.5a7,7,0,0,0,1.4,9.8,7.3,7.3,0,0,0,4.2,1.4,7.2,7.2,0,0,0,5.6-2.8L840.4,407A7,7,0,0,0,839,397.2Z" transform="translate(282.3 73.1)"/><path class="cls-1" d="M556.1,397.2a7,7,0,0,0-1.5,9.8l75.6,101.9a7.2,7.2,0,0,0,5.6,2.8,7.1,7.1,0,0,0,5.7-11.2L565.9,398.7A7,7,0,0,0,556.1,397.2Z" transform="translate(282.3 73.1)"/><path class="cls-1" d="M518.3,397.2a7,7,0,0,0-1.5,9.8l75.6,101.9a7.2,7.2,0,0,0,5.6,2.8,7.1,7.1,0,0,0,5.7-11.2L528.1,398.7A7,7,0,0,0,518.3,397.2Z" transform="translate(282.3 73.1)"/><path class="cls-1" d="M1161.6,399.7a7,7,0,0,0-6.3-3.9H1004.1a7,7,0,0,0-6.2,3.9,6.9,6.9,0,0,0,.6,7.3l75.6,101.9a7,7,0,0,0,11.2,0L1160.9,407A6.9,6.9,0,0,0,1161.6,399.7ZM1079.7,493,1018,409.8h123.4Z" transform="translate(282.3 73.1)"/><path class="cls-1" d="M1285.3,398.7a6.9,6.9,0,0,0-11.2,0l-75.6,101.8a7.1,7.1,0,0,0,5.6,11.2h151.2a7,7,0,0,0,6.3-3.9,6.9,6.9,0,0,0-.7-7.3Zm-67.3,99,61.7-83.1,61.7,83.1Z" transform="translate(282.3 73.1)"/><path class="cls-1" d="M1201,397.2a7,7,0,0,0-9.8,1.5l-75.6,101.8a7.1,7.1,0,0,0,5.7,11.2,7.2,7.2,0,0,0,5.6-2.8L1202.5,407A7,7,0,0,0,1201,397.2Z" transform="translate(282.3 73.1)"/><path class="cls-1" d="M1238.8,397.2a7,7,0,0,0-9.8,1.5l-75.6,101.8a7.1,7.1,0,0,0,5.7,11.2,7.2,7.2,0,0,0,5.6-2.8L1240.3,407A7,7,0,0,0,1238.8,397.2Z" transform="translate(282.3 73.1)"/><path class="cls-1" d="M1035.7,511.7a7.3,7.3,0,0,0,4.2-1.4,7,7,0,0,0,1.4-9.8L965.7,398.7a7,7,0,1,0-11.2,8.3l75.6,101.9A7.2,7.2,0,0,0,1035.7,511.7Z" transform="translate(282.3 73.1)"/><path class="cls-1" d="M918.1,397.2a7,7,0,0,0-1.4,9.8l75.6,101.9a7.2,7.2,0,0,0,5.6,2.8,7.3,7.3,0,0,0,4.2-1.4,7,7,0,0,0,1.4-9.8L927.9,398.7A7,7,0,0,0,918.1,397.2Z" transform="translate(282.3 73.1)"/><path class="cls-1" d="M-199.8,680.3a7,7,0,0,0,6.3,3.9H-42.3a7,7,0,0,0,6.2-3.9,6.9,6.9,0,0,0-.6-7.3l-75.6-101.9a7.2,7.2,0,0,0-5.6-2.8,7.2,7.2,0,0,0-5.6,2.8L-199.1,673A6.9,6.9,0,0,0-199.8,680.3Zm81.9-93.3,61.7,83.2H-179.6Z" transform="translate(282.3 73.1)"/><path class="cls-1" d="M82.1,684.2a7,7,0,0,0,5.6-2.9l75.6-101.8a7.1,7.1,0,0,0-5.6-11.2H6.5a7,7,0,0,0-6.3,3.9,6.9,6.9,0,0,0,.7,7.3L76.5,681.3A7,7,0,0,0,82.1,684.2Zm61.7-101.9L82.1,665.4,20.4,582.3Z" transform="translate(282.3 73.1)"/><path class="cls-1" d="M-82,579.5-6.4,681.3a7,7,0,0,0,5.6,2.9,7.3,7.3,0,0,0,4.2-1.4A7,7,0,0,0,4.8,673L-70.8,571.1a6.9,6.9,0,0,0-9.7-1.4A6.9,6.9,0,0,0-82,579.5Z" transform="translate(282.3 73.1)"/><path class="cls-1" d="M37,684.2a7.3,7.3,0,0,0,4.2-1.4,7,7,0,0,0,1.4-9.8L-33,571.1a6.9,6.9,0,0,0-9.7-1.4,6.9,6.9,0,0,0-1.5,9.8L31.4,681.3A7,7,0,0,0,37,684.2Z" transform="translate(282.3 73.1)"/><path class="cls-1" d="M-241.7,682.8a7.3,7.3,0,0,0,4.2,1.4,7,7,0,0,0,5.6-2.9l75.6-101.8a7,7,0,0,0-1.4-9.8,7,7,0,0,0-9.8,1.4L-243.1,673A7,7,0,0,0-241.7,682.8Z" transform="translate(282.3 73.1)"/><path class="cls-1" d="M-279.5,682.8a7.3,7.3,0,0,0,4.2,1.4,7,7,0,0,0,5.6-2.9l75.6-101.8a7,7,0,0,0-1.4-9.8,7,7,0,0,0-9.8,1.4L-280.9,673A7,7,0,0,0-279.5,682.8Z" transform="translate(282.3 73.1)"/><path class="cls-1" d="M206.4,684.2H357.6a7,7,0,0,0,6.2-3.9,6.9,6.9,0,0,0-.6-7.3L287.6,571.1a7.2,7.2,0,0,0-5.6-2.8,7.4,7.4,0,0,0-5.7,2.8L200.7,673a7.1,7.1,0,0,0-.6,7.3A7,7,0,0,0,206.4,684.2ZM282,587l61.6,83.2H220.3Z" transform="translate(282.3 73.1)"/><path class="cls-1" d="M482,684.2a7,7,0,0,0,5.6-2.9l75.6-101.8a7.1,7.1,0,0,0-5.6-11.2H406.4a7,7,0,0,0-6.3,3.9,7.1,7.1,0,0,0,.6,7.3l75.6,101.8A7.2,7.2,0,0,0,482,684.2Zm61.6-101.9L482,665.4l-61.7-83.1Z" transform="translate(282.3 73.1)"/><path class="cls-1" d="M399.1,684.2a7.3,7.3,0,0,0,4.2-1.4,7,7,0,0,0,1.4-9.8L329.1,571.1a7,7,0,1,0-11.2,8.4l75.6,101.8A7,7,0,0,0,399.1,684.2Z" transform="translate(282.3 73.1)"/><path class="cls-1" d="M436.9,684.2a7.3,7.3,0,0,0,4.2-1.4,7,7,0,0,0,1.4-9.8L366.9,571.1a7,7,0,1,0-11.2,8.4l75.6,101.8A7,7,0,0,0,436.9,684.2Z" transform="translate(282.3 73.1)"/><path class="cls-1" d="M158.2,682.8a7.1,7.1,0,0,0,4.2,1.4,7,7,0,0,0,5.6-2.9l75.6-101.8a7,7,0,0,0-11.3-8.4L156.7,673A7,7,0,0,0,158.2,682.8Z" transform="translate(282.3 73.1)"/><path class="cls-1" d="M120.4,682.8a7.1,7.1,0,0,0,4.2,1.4,7,7,0,0,0,5.6-2.9l75.6-101.8a7,7,0,0,0-11.3-8.4L118.9,673A7,7,0,0,0,120.4,682.8Z" transform="translate(282.3 73.1)"/><path class="cls-1" d="M604.2,684.2H755.4a7,7,0,0,0,6.3-3.9,7.1,7.1,0,0,0-.6-7.3L685.5,571.1a7.4,7.4,0,0,0-5.7-2.8,7.2,7.2,0,0,0-5.6,2.8L598.6,673a6.9,6.9,0,0,0-.6,7.3A7,7,0,0,0,604.2,684.2ZM679.8,587l61.7,83.2H618.2Z" transform="translate(282.3 73.1)"/><path class="cls-1" d="M879.8,684.2a7.2,7.2,0,0,0,5.7-2.9l75.6-101.8a7.1,7.1,0,0,0,.6-7.3,7,7,0,0,0-6.3-3.9H804.2a7.1,7.1,0,0,0-5.6,11.2l75.6,101.8A7,7,0,0,0,879.8,684.2Zm61.7-101.9-61.7,83.1-61.6-83.1Z" transform="translate(282.3 73.1)"/><path class="cls-1" d="M797,684.2a7.5,7.5,0,0,0,4.2-1.4,7,7,0,0,0,1.4-9.8L727,571.1a7,7,0,0,0-11.2,8.4l75.6,101.8A6.7,6.7,0,0,0,797,684.2Z" transform="translate(282.3 73.1)"/><path class="cls-1" d="M834.8,684.2a7.5,7.5,0,0,0,4.2-1.4,7,7,0,0,0,1.4-9.8L764.8,571.1a7,7,0,0,0-11.2,8.4l75.6,101.8A6.7,6.7,0,0,0,834.8,684.2Z" transform="translate(282.3 73.1)"/><path class="cls-1" d="M556.1,682.8a6.9,6.9,0,0,0,9.8-1.5l75.6-101.8a7,7,0,0,0-11.3-8.4L554.6,673A7,7,0,0,0,556.1,682.8Z" transform="translate(282.3 73.1)"/><path class="cls-1" d="M518.3,682.8a6.9,6.9,0,0,0,9.8-1.5l75.6-101.8a7,7,0,0,0-11.3-8.4L516.8,673A7,7,0,0,0,518.3,682.8Z" transform="translate(282.3 73.1)"/><path class="cls-1" d="M1004.1,684.2h151.2a7,7,0,0,0,6.3-3.9,6.9,6.9,0,0,0-.7-7.3l-75.6-101.9a7,7,0,0,0-11.2,0L998.5,673a6.9,6.9,0,0,0-.6,7.3A7,7,0,0,0,1004.1,684.2Zm75.6-97.2,61.7,83.2H1018Z" transform="translate(282.3 73.1)"/><path class="cls-1" d="M1355.3,568.3H1204.1a7.1,7.1,0,0,0-5.6,11.2l75.6,101.8a6.9,6.9,0,0,0,11.2,0l75.6-101.8a6.9,6.9,0,0,0,.7-7.3A7,7,0,0,0,1355.3,568.3Zm-75.6,97.1L1218,582.3h123.4Z" transform="translate(282.3 73.1)"/><path class="cls-1" d="M1202.5,673l-75.6-101.9a7,7,0,0,0-11.3,8.4l75.6,101.8a7,7,0,1,0,11.3-8.3Z" transform="translate(282.3 73.1)"/><path class="cls-1" d="M1240.3,673l-75.6-101.9a7,7,0,0,0-11.3,8.4L1229,681.3a7,7,0,1,0,11.3-8.3Z" transform="translate(282.3 73.1)"/><path class="cls-1" d="M955.9,682.8a7.5,7.5,0,0,0,4.2,1.4,6.7,6.7,0,0,0,5.6-2.9l75.6-101.8a7,7,0,1,0-11.2-8.4L954.5,673A7,7,0,0,0,955.9,682.8Z" transform="translate(282.3 73.1)"/><path class="cls-1" d="M918.1,682.8a7.5,7.5,0,0,0,4.2,1.4,6.7,6.7,0,0,0,5.6-2.9l75.6-101.8a7,7,0,0,0-11.2-8.4L916.7,673A7,7,0,0,0,918.1,682.8Z" transform="translate(282.3 73.1)"/><path class="cls-1" d="M-199.1,727.7l75.6,101.9a6.9,6.9,0,0,0,5.6,2.8,6.9,6.9,0,0,0,5.6-2.8l75.6-101.9a6.9,6.9,0,0,0,.6-7.3,7,7,0,0,0-6.2-3.9H-193.5a7,7,0,0,0-6.3,3.9A6.9,6.9,0,0,0-199.1,727.7Zm142.9,2.8-61.7,83.2-61.7-83.2Z" transform="translate(282.3 73.1)"/><path class="cls-1" d="M6.5,832.4H157.7a7.1,7.1,0,0,0,5.6-11.2L87.7,719.4a6.9,6.9,0,0,0-11.2,0L.9,821.2a6.9,6.9,0,0,0-.7,7.3A7,7,0,0,0,6.5,832.4Zm75.6-97.1,61.7,83.1H20.4Z" transform="translate(282.3 73.1)"/><path class="cls-1" d="M-80.5,831a6.4,6.4,0,0,0,4.1,1.4,6.9,6.9,0,0,0,5.6-2.8L4.8,727.7a7,7,0,0,0-1.4-9.8,7,7,0,0,0-9.8,1.5L-82,821.2A6.9,6.9,0,0,0-80.5,831Z" transform="translate(282.3 73.1)"/><path class="cls-1" d="M-42.7,831a6.4,6.4,0,0,0,4.1,1.4,6.9,6.9,0,0,0,5.6-2.8L42.6,727.7a7,7,0,1,0-11.2-8.3L-44.2,821.2A6.9,6.9,0,0,0-42.7,831Z" transform="translate(282.3 73.1)"/><path class="cls-1" d="M-243.1,727.7l75.6,101.9a6.9,6.9,0,0,0,5.6,2.8,6.8,6.8,0,0,0,4.2-1.4,7,7,0,0,0,1.4-9.8l-75.6-101.8a7,7,0,0,0-9.8-1.5A7,7,0,0,0-243.1,727.7Z" transform="translate(282.3 73.1)"/><path class="cls-1" d="M-205.3,829.6a6.9,6.9,0,0,0,5.6,2.8,6.8,6.8,0,0,0,4.2-1.4,7,7,0,0,0,1.4-9.8l-75.6-101.8a7,7,0,0,0-9.8-1.5,7,7,0,0,0-1.4,9.8Z" transform="translate(282.3 73.1)"/><path class="cls-1" d="M282,832.4a6.9,6.9,0,0,0,5.6-2.8l75.6-101.9a6.9,6.9,0,0,0,.6-7.3,7,7,0,0,0-6.2-3.9H206.4a7,7,0,0,0-6.3,3.9,7.1,7.1,0,0,0,.6,7.3l75.6,101.9A7.1,7.1,0,0,0,282,832.4Zm61.6-101.9L282,813.7l-61.7-83.2Z" transform="translate(282.3 73.1)"/><path class="cls-1" d="M406.4,832.4H557.6a7.1,7.1,0,0,0,5.6-11.2L487.6,719.4a7,7,0,0,0-5.6-2.9,7.2,7.2,0,0,0-5.7,2.9L400.7,821.2a7.1,7.1,0,0,0-.6,7.3A7,7,0,0,0,406.4,832.4ZM482,735.3l61.6,83.1H420.3Z" transform="translate(282.3 73.1)"/><path class="cls-1" d="M319.3,831a6.6,6.6,0,0,0,4.2,1.4,7,7,0,0,0,5.6-2.8l75.6-101.9a7,7,0,1,0-11.2-8.3L317.9,821.2A7,7,0,0,0,319.3,831Z" transform="translate(282.3 73.1)"/><path class="cls-1" d="M357.1,831a6.6,6.6,0,0,0,4.2,1.4,7,7,0,0,0,5.6-2.8l75.6-101.9a7,7,0,1,0-11.2-8.3L355.7,821.2A7,7,0,0,0,357.1,831Z" transform="translate(282.3 73.1)"/><path class="cls-1" d="M238,832.4a6.4,6.4,0,0,0,4.1-1.4,7,7,0,0,0,1.5-9.8L168,719.4a7,7,0,1,0-11.3,8.3l75.6,101.9A7.2,7.2,0,0,0,238,832.4Z" transform="translate(282.3 73.1)"/><path class="cls-1" d="M200.2,832.4a6.4,6.4,0,0,0,4.1-1.4,7,7,0,0,0,1.5-9.8L130.2,719.4a7,7,0,1,0-11.3,8.3l75.6,101.9A7.2,7.2,0,0,0,200.2,832.4Z" transform="translate(282.3 73.1)"/><path class="cls-1" d="M679.8,832.4a7.1,7.1,0,0,0,5.7-2.8l75.6-101.9a7.1,7.1,0,0,0,.6-7.3,7,7,0,0,0-6.3-3.9H604.2a7,7,0,0,0-6.2,3.9,6.9,6.9,0,0,0,.6,7.3l75.6,101.9A6.9,6.9,0,0,0,679.8,832.4Zm61.7-101.9-61.7,83.2-61.6-83.2Z" transform="translate(282.3 73.1)"/><path class="cls-1" d="M804.2,832.4H955.4a7,7,0,0,0,6.3-3.9,7.1,7.1,0,0,0-.6-7.3L885.5,719.4a7.2,7.2,0,0,0-5.7-2.9,7,7,0,0,0-5.6,2.9L798.6,821.2a7.1,7.1,0,0,0,5.6,11.2Zm75.6-97.1,61.7,83.1H818.2Z" transform="translate(282.3 73.1)"/><path class="cls-1" d="M717.2,831a6.6,6.6,0,0,0,4.2,1.4,7.2,7.2,0,0,0,5.6-2.8l75.6-101.9a7,7,0,1,0-11.2-8.3L715.8,821.2A7,7,0,0,0,717.2,831Z" transform="translate(282.3 73.1)"/><path class="cls-1" d="M755,831a6.6,6.6,0,0,0,4.2,1.4,7.2,7.2,0,0,0,5.6-2.8l75.6-101.9a7,7,0,1,0-11.2-8.3L753.6,821.2A7,7,0,0,0,755,831Z" transform="translate(282.3 73.1)"/><path class="cls-1" d="M635.8,832.4A6.5,6.5,0,0,0,640,831a7,7,0,0,0,1.5-9.8L565.9,719.4a7,7,0,1,0-11.3,8.3l75.6,101.9A7.2,7.2,0,0,0,635.8,832.4Z" transform="translate(282.3 73.1)"/><path class="cls-1" d="M598,832.4a6.5,6.5,0,0,0,4.2-1.4,7,7,0,0,0,1.5-9.8L528.1,719.4a7,7,0,1,0-11.3,8.3l75.6,101.9A7.2,7.2,0,0,0,598,832.4Z" transform="translate(282.3 73.1)"/><path class="cls-1" d="M1079.7,832.4a6.9,6.9,0,0,0,5.6-2.8l75.6-101.9a6.9,6.9,0,0,0,.7-7.3,7,7,0,0,0-6.3-3.9H1004.1a7,7,0,0,0-6.2,3.9,6.9,6.9,0,0,0,.6,7.3l75.6,101.9A6.9,6.9,0,0,0,1079.7,832.4Zm61.7-101.9-61.7,83.2L1018,730.5Z" transform="translate(282.3 73.1)"/><path class="cls-1" d="M1285.3,719.4a6.9,6.9,0,0,0-11.2,0l-75.6,101.8a7.1,7.1,0,0,0,5.6,11.2h151.2a7,7,0,0,0,5.6-11.2Zm-67.3,99,61.7-83.1,61.7,83.1Z" transform="translate(282.3 73.1)"/><path class="cls-1" d="M1117.1,831a6.5,6.5,0,0,0,4.2,1.4,7.2,7.2,0,0,0,5.6-2.8l75.6-101.9a7,7,0,0,0-11.3-8.3l-75.6,101.8A7,7,0,0,0,1117.1,831Z" transform="translate(282.3 73.1)"/><path class="cls-1" d="M1238.8,717.9a7,7,0,0,0-9.8,1.5l-75.6,101.8a7,7,0,0,0,1.5,9.8,6.5,6.5,0,0,0,4.2,1.4,7.2,7.2,0,0,0,5.6-2.8l75.6-101.9A7,7,0,0,0,1238.8,717.9Z" transform="translate(282.3 73.1)"/><path class="cls-1" d="M1035.7,832.4a6.6,6.6,0,0,0,4.2-1.4,7,7,0,0,0,1.4-9.8L965.7,719.4a7,7,0,1,0-11.2,8.3l75.6,101.9A7.2,7.2,0,0,0,1035.7,832.4Z" transform="translate(282.3 73.1)"/><path class="cls-1" d="M997.9,832.4a6.6,6.6,0,0,0,4.2-1.4,7,7,0,0,0,1.4-9.8L927.9,719.4a7,7,0,1,0-11.2,8.3l75.6,101.9A7.2,7.2,0,0,0,997.9,832.4Z" transform="translate(282.3 73.1)"/><path class="cls-1" d="M-193.5,1004.9H-42.3a7,7,0,0,0,6.2-3.9,6.9,6.9,0,0,0-.6-7.3l-75.6-101.9a7.2,7.2,0,0,0-5.6-2.8,7.2,7.2,0,0,0-5.6,2.8l-75.6,101.9a6.9,6.9,0,0,0-.7,7.3A7,7,0,0,0-193.5,1004.9Zm75.6-97.1,61.7,83.1H-179.6Z" transform="translate(282.3 73.1)"/><path class="cls-1" d="M82.1,1004.9a7,7,0,0,0,5.6-2.9l75.6-101.8a7.1,7.1,0,0,0-5.6-11.2H6.5a7,7,0,0,0-6.3,3.9,6.9,6.9,0,0,0,.7,7.3L76.5,1002A7,7,0,0,0,82.1,1004.9ZM143.8,903,82.1,986.1,20.4,903Z" transform="translate(282.3 73.1)"/><path class="cls-1" d="M-.8,1004.9a7.3,7.3,0,0,0,4.2-1.4,7,7,0,0,0,1.4-9.8L-70.8,891.8a6.9,6.9,0,0,0-9.7-1.4,6.9,6.9,0,0,0-1.5,9.8L-6.4,1002A7,7,0,0,0-.8,1004.9Z" transform="translate(282.3 73.1)"/><path class="cls-1" d="M37,1004.9a7.3,7.3,0,0,0,4.2-1.4,7,7,0,0,0,1.4-9.8L-33,891.8a6.9,6.9,0,0,0-9.7-1.4,6.9,6.9,0,0,0-1.5,9.8L31.4,1002A7,7,0,0,0,37,1004.9Z" transform="translate(282.3 73.1)"/><path class="cls-1" d="M-241.7,1003.5a7.3,7.3,0,0,0,4.2,1.4,7,7,0,0,0,5.6-2.9l75.6-101.8a7,7,0,0,0-1.4-9.8,7,7,0,0,0-9.8,1.4l-75.6,101.9A7,7,0,0,0-241.7,1003.5Z" transform="translate(282.3 73.1)"/><path class="cls-1" d="M-279.5,1003.5a7.3,7.3,0,0,0,4.2,1.4,7,7,0,0,0,5.6-2.9l75.6-101.8a7,7,0,0,0-1.4-9.8,7,7,0,0,0-9.8,1.4l-75.6,101.9A7,7,0,0,0-279.5,1003.5Z" transform="translate(282.3 73.1)"/><path class="cls-1" d="M206.4,1004.9H357.6a7,7,0,0,0,6.2-3.9,6.9,6.9,0,0,0-.6-7.3L287.6,891.8A7.2,7.2,0,0,0,282,889a7.4,7.4,0,0,0-5.7,2.8L200.7,993.7a7.1,7.1,0,0,0-.6,7.3A7,7,0,0,0,206.4,1004.9ZM282,907.8l61.6,83.1H220.3Z" transform="translate(282.3 73.1)"/><path class="cls-1" d="M482,1004.9a7,7,0,0,0,5.6-2.9l75.6-101.8a7.1,7.1,0,0,0-5.6-11.2H406.4a7,7,0,0,0-6.3,3.9,7.1,7.1,0,0,0,.6,7.3L476.3,1002A7.2,7.2,0,0,0,482,1004.9ZM543.6,903,482,986.1,420.3,903Z" transform="translate(282.3 73.1)"/><path class="cls-1" d="M399.1,1004.9a7.3,7.3,0,0,0,4.2-1.4,7,7,0,0,0,1.4-9.8L329.1,891.8a7,7,0,1,0-11.2,8.4L393.5,1002A7,7,0,0,0,399.1,1004.9Z" transform="translate(282.3 73.1)"/><path class="cls-1" d="M436.9,1004.9a7.3,7.3,0,0,0,4.2-1.4,7,7,0,0,0,1.4-9.8L366.9,891.8a7,7,0,1,0-11.2,8.4L431.3,1002A7,7,0,0,0,436.9,1004.9Z" transform="translate(282.3 73.1)"/><path class="cls-1" d="M158.2,1003.5a7.1,7.1,0,0,0,4.2,1.4,7,7,0,0,0,5.6-2.9l75.6-101.8a7,7,0,0,0-11.3-8.4L156.7,993.7A7,7,0,0,0,158.2,1003.5Z" transform="translate(282.3 73.1)"/><path class="cls-1" d="M120.4,1003.5a7.1,7.1,0,0,0,4.2,1.4,7,7,0,0,0,5.6-2.9l75.6-101.8a7,7,0,0,0-11.3-8.4L118.9,993.7A7,7,0,0,0,120.4,1003.5Z" transform="translate(282.3 73.1)"/><path class="cls-1" d="M604.2,1004.9H755.4a7,7,0,0,0,6.3-3.9,7.1,7.1,0,0,0-.6-7.3L685.5,891.8a7.4,7.4,0,0,0-5.7-2.8,7.2,7.2,0,0,0-5.6,2.8L598.6,993.7a6.9,6.9,0,0,0-.6,7.3A7,7,0,0,0,604.2,1004.9Zm75.6-97.1,61.7,83.1H618.2Z" transform="translate(282.3 73.1)"/><path class="cls-1" d="M879.8,1004.9a7.2,7.2,0,0,0,5.7-2.9l75.6-101.8a7.1,7.1,0,0,0,.6-7.3,7,7,0,0,0-6.3-3.9H804.2a7.1,7.1,0,0,0-5.6,11.2L874.2,1002A7,7,0,0,0,879.8,1004.9ZM941.5,903l-61.7,83.1L818.2,903Z" transform="translate(282.3 73.1)"/><path class="cls-1" d="M797,1004.9a7.5,7.5,0,0,0,4.2-1.4,7,7,0,0,0,1.4-9.8L727,891.8a7,7,0,1,0-11.2,8.4L791.4,1002A6.7,6.7,0,0,0,797,1004.9Z" transform="translate(282.3 73.1)"/><path class="cls-1" d="M834.8,1004.9a7.5,7.5,0,0,0,4.2-1.4,7,7,0,0,0,1.4-9.8L764.8,891.8a7,7,0,1,0-11.2,8.4L829.2,1002A6.7,6.7,0,0,0,834.8,1004.9Z" transform="translate(282.3 73.1)"/><path class="cls-1" d="M556.1,1003.5a6.9,6.9,0,0,0,9.8-1.5l75.6-101.8a7,7,0,0,0-11.3-8.4L554.6,993.7A7,7,0,0,0,556.1,1003.5Z" transform="translate(282.3 73.1)"/><path class="cls-1" d="M518.3,1003.5a6.9,6.9,0,0,0,9.8-1.5l75.6-101.8a7,7,0,0,0-11.3-8.4L516.8,993.7A7,7,0,0,0,518.3,1003.5Z" transform="translate(282.3 73.1)"/><path class="cls-1" d="M1004.1,1004.9h151.2a7,7,0,0,0,6.3-3.9,6.9,6.9,0,0,0-.7-7.3l-75.6-101.9a7,7,0,0,0-11.2,0L998.5,993.7a6.9,6.9,0,0,0-.6,7.3A7,7,0,0,0,1004.1,1004.9Zm75.6-97.1,61.7,83.1H1018Z" transform="translate(282.3 73.1)"/><path class="cls-1" d="M1355.3,889H1204.1a7.1,7.1,0,0,0-5.6,11.2l75.6,101.8a6.9,6.9,0,0,0,11.2,0l75.6-101.8a6.9,6.9,0,0,0,.7-7.3A7,7,0,0,0,1355.3,889Zm-75.6,97.1L1218,903h123.4Z" transform="translate(282.3 73.1)"/><path class="cls-1" d="M1196.9,1004.9a7.1,7.1,0,0,0,5.6-11.2l-75.6-101.9a7,7,0,0,0-11.3,8.4l75.6,101.8A7,7,0,0,0,1196.9,1004.9Z" transform="translate(282.3 73.1)"/><path class="cls-1" d="M1234.7,1004.9a7.1,7.1,0,0,0,5.6-11.2l-75.6-101.9a7,7,0,0,0-11.3,8.4L1229,1002A7,7,0,0,0,1234.7,1004.9Z" transform="translate(282.3 73.1)"/><path class="cls-1" d="M955.9,1003.5a7.5,7.5,0,0,0,4.2,1.4,6.7,6.7,0,0,0,5.6-2.9l75.6-101.8a7,7,0,1,0-11.2-8.4L954.5,993.7A7,7,0,0,0,955.9,1003.5Z" transform="translate(282.3 73.1)"/><path class="cls-1" d="M918.1,1003.5a7.5,7.5,0,0,0,4.2,1.4,6.7,6.7,0,0,0,5.6-2.9l75.6-101.8a7,7,0,0,0-11.2-8.4L916.7,993.7A7,7,0,0,0,918.1,1003.5Z" transform="translate(282.3 73.1)"/><path class="cls-1" d="M-36.1,1041.1a6.9,6.9,0,0,0-6.2-3.8H-193.5a6.9,6.9,0,0,0-6.3,3.8,6.9,6.9,0,0,0,.7,7.3l75.6,101.9a6.9,6.9,0,0,0,5.6,2.8,6.9,6.9,0,0,0,5.6-2.8l75.6-101.9A6.9,6.9,0,0,0-36.1,1041.1Zm-81.8,93.3-61.7-83.1H-56.2Z" transform="translate(282.3 73.1)"/><path class="cls-1" d="M87.7,1040.1a7,7,0,0,0-11.2,0L.9,1141.9a7.1,7.1,0,0,0-.7,7.4,7.1,7.1,0,0,0,6.3,3.8H157.7a7,7,0,0,0,5.6-11.2Zm-67.3,99L82.1,1056l61.7,83.1Z" transform="translate(282.3 73.1)"/><path class="cls-1" d="M3.4,1038.6a7,7,0,0,0-9.8,1.5L-82,1141.9a6.9,6.9,0,0,0,1.5,9.8,6.4,6.4,0,0,0,4.1,1.4,6.9,6.9,0,0,0,5.6-2.8L4.8,1048.4A7,7,0,0,0,3.4,1038.6Z" transform="translate(282.3 73.1)"/><path class="cls-1" d="M41.2,1038.6a7,7,0,0,0-9.8,1.5l-75.6,101.8a6.9,6.9,0,0,0,1.5,9.8,6.4,6.4,0,0,0,4.1,1.4,6.9,6.9,0,0,0,5.6-2.8l75.6-101.9A7,7,0,0,0,41.2,1038.6Z" transform="translate(282.3 73.1)"/><path class="cls-1" d="M-231.9,1040.1a7,7,0,0,0-9.8-1.5,7,7,0,0,0-1.4,9.8l75.6,101.9a6.9,6.9,0,0,0,5.6,2.8,6.8,6.8,0,0,0,4.2-1.4,7,7,0,0,0,1.4-9.8Z" transform="translate(282.3 73.1)"/><path class="cls-1" d="M-269.7,1040.1a7,7,0,0,0-9.8-1.5,7,7,0,0,0-1.4,9.8l75.6,101.9a6.9,6.9,0,0,0,5.6,2.8,6.8,6.8,0,0,0,4.2-1.4,7,7,0,0,0,1.4-9.8Z" transform="translate(282.3 73.1)"/><path class="cls-1" d="M363.8,1041.1a6.9,6.9,0,0,0-6.2-3.8H206.4a6.9,6.9,0,0,0-6.3,3.8,7.1,7.1,0,0,0,.6,7.3l75.6,101.9a7.1,7.1,0,0,0,5.7,2.8,6.9,6.9,0,0,0,5.6-2.8l75.6-101.9A6.9,6.9,0,0,0,363.8,1041.1ZM282,1134.4l-61.7-83.1H343.6Z" transform="translate(282.3 73.1)"/><path class="cls-1" d="M487.6,1040.1a6.9,6.9,0,0,0-5.6-2.8,7.1,7.1,0,0,0-5.7,2.8l-75.6,101.8a7.3,7.3,0,0,0-.6,7.4,7.1,7.1,0,0,0,6.3,3.8H557.6a7,7,0,0,0,5.6-11.2Zm-67.3,99L482,1056l61.6,83.1Z" transform="translate(282.3 73.1)"/><path class="cls-1" d="M403.3,1038.6a7,7,0,0,0-9.8,1.5l-75.6,101.8a7,7,0,0,0,1.4,9.8,6.6,6.6,0,0,0,4.2,1.4,7,7,0,0,0,5.6-2.8l75.6-101.9A7,7,0,0,0,403.3,1038.6Z" transform="translate(282.3 73.1)"/><path class="cls-1" d="M441.1,1038.6a7,7,0,0,0-9.8,1.5l-75.6,101.8a7,7,0,0,0,1.4,9.8,6.6,6.6,0,0,0,4.2,1.4,7,7,0,0,0,5.6-2.8l75.6-101.9A7,7,0,0,0,441.1,1038.6Z" transform="translate(282.3 73.1)"/><path class="cls-1" d="M168,1040.1a7,7,0,1,0-11.3,8.3l75.6,101.9a7.2,7.2,0,0,0,5.7,2.8,6.4,6.4,0,0,0,4.1-1.4,7,7,0,0,0,1.5-9.8Z" transform="translate(282.3 73.1)"/><path class="cls-1" d="M130.2,1040.1a7,7,0,0,0-11.3,8.3l75.6,101.9a7.2,7.2,0,0,0,5.7,2.8,6.4,6.4,0,0,0,4.1-1.4,7,7,0,0,0,1.5-9.8Z" transform="translate(282.3 73.1)"/><path class="cls-1" d="M761.7,1041.1a6.9,6.9,0,0,0-6.3-3.8H604.2a7,7,0,0,0-5.6,11.1l75.6,101.9a6.9,6.9,0,0,0,5.6,2.8,7.1,7.1,0,0,0,5.7-2.8l75.6-101.9A7.1,7.1,0,0,0,761.7,1041.1Zm-81.9,93.3-61.6-83.1H741.5Z" transform="translate(282.3 73.1)"/><path class="cls-1" d="M885.5,1040.1a7.1,7.1,0,0,0-5.7-2.8,6.9,6.9,0,0,0-5.6,2.8l-75.6,101.8a7,7,0,0,0,5.6,11.2H955.4a7.1,7.1,0,0,0,6.3-3.8,7.3,7.3,0,0,0-.6-7.4Zm-67.3,99,61.6-83.1,61.7,83.1Z" transform="translate(282.3 73.1)"/><path class="cls-1" d="M801.2,1038.6a7,7,0,0,0-9.8,1.5l-75.6,101.8a7,7,0,0,0,1.4,9.8,6.6,6.6,0,0,0,4.2,1.4,7.2,7.2,0,0,0,5.6-2.8l75.6-101.9A7,7,0,0,0,801.2,1038.6Z" transform="translate(282.3 73.1)"/><path class="cls-1" d="M839,1038.6a7,7,0,0,0-9.8,1.5l-75.6,101.8a7,7,0,0,0,1.4,9.8,6.6,6.6,0,0,0,4.2,1.4,7.2,7.2,0,0,0,5.6-2.8l75.6-101.9A7,7,0,0,0,839,1038.6Z" transform="translate(282.3 73.1)"/><path class="cls-1" d="M565.9,1040.1a7,7,0,0,0-11.3,8.3l75.6,101.9a7.2,7.2,0,0,0,5.6,2.8,6.5,6.5,0,0,0,4.2-1.4,7,7,0,0,0,1.5-9.8Z" transform="translate(282.3 73.1)"/><path class="cls-1" d="M528.1,1040.1a7,7,0,1,0-11.3,8.3l75.6,101.9a7.2,7.2,0,0,0,5.6,2.8,6.5,6.5,0,0,0,4.2-1.4,7,7,0,0,0,1.5-9.8Z" transform="translate(282.3 73.1)"/><path class="cls-1" d="M1161.6,1041.1a6.9,6.9,0,0,0-6.3-3.8H1004.1a7,7,0,0,0-5.6,11.1l75.6,101.9a7,7,0,0,0,11.2,0l75.6-101.9A6.9,6.9,0,0,0,1161.6,1041.1Zm-81.9,93.3-61.7-83.1h123.4Z" transform="translate(282.3 73.1)"/><path class="cls-1" d="M1285.3,1040.1a7,7,0,0,0-11.2,0l-75.6,101.8a7,7,0,0,0,5.6,11.2h151.2a6.9,6.9,0,0,0,5.6-11.2Zm-67.3,99,61.7-83.1,61.7,83.1Z" transform="translate(282.3 73.1)"/><path class="cls-1" d="M1201,1038.6a7,7,0,0,0-9.8,1.5l-75.6,101.8a7,7,0,0,0,1.5,9.8,6.5,6.5,0,0,0,4.2,1.4,7.2,7.2,0,0,0,5.6-2.8l75.6-101.9A7,7,0,0,0,1201,1038.6Z" transform="translate(282.3 73.1)"/><path class="cls-1" d="M1238.8,1038.6a7,7,0,0,0-9.8,1.5l-75.6,101.8a7,7,0,0,0,1.5,9.8,6.5,6.5,0,0,0,4.2,1.4,7.2,7.2,0,0,0,5.6-2.8l75.6-101.9A7,7,0,0,0,1238.8,1038.6Z" transform="translate(282.3 73.1)"/><path class="cls-1" d="M965.7,1040.1a7,7,0,1,0-11.2,8.3l75.6,101.9a7.2,7.2,0,0,0,5.6,2.8,6.6,6.6,0,0,0,4.2-1.4,7,7,0,0,0,1.4-9.8Z" transform="translate(282.3 73.1)"/><path class="cls-1" d="M927.9,1040.1a7,7,0,1,0-11.2,8.3l75.6,101.9a7.2,7.2,0,0,0,5.6,2.8,6.6,6.6,0,0,0,4.2-1.4,7,7,0,0,0,1.4-9.8Z" transform="translate(282.3 73.1)"/></svg>